<?xml version="1.0" standalone="no"?><!DOCTYPE svg PUBLIC "-//W3C//DTD SVG 1.1//EN" "http://www.w3.org/Graphics/SVG/1.1/DTD/svg11.dtd"><svg class="icon" width="200px" height="200.00px" viewBox="0 0 1024 1024" version="1.1" xmlns="http://www.w3.org/2000/svg"><path d="M935.4 772.8c-19.4-41.6-46.8-79-81.8-111.4-70.2-65.2-164-102.6-257.4-102.6h-159.6c-93.4 0-187.2 37.4-257.4 102.6-35 32.4-62.4 70-81.8 111.4-20.4 43.6-30.6 89.6-30.6 136.6 0 61.4 49.8 111.2 111.2 111.2h676.8c61.4 0 111.2-49.8 111.2-111.2 0-47-10.2-93-30.6-136.6z m-80.6 185H178c-26.8 0-48.4-21.8-48.4-48.4 0-75.8 33.2-148 93.8-203.4 58.6-53.6 136.2-84.4 213.2-84.4h159.6c77 0 154.8 30.8 213.2 84.4 60.4 55.4 93.8 127.6 93.8 203.4 0 26.8-21.6 48.4-48.4 48.4zM516.4 541.8c149.4 0 270.8-121.6 270.8-270.8S665.8 0 516.4 0 245.6 121.6 245.6 270.8s121.4 271 270.8 271z m0-479c114.8 0 208 93.4 208 208s-93.4 208-208 208c-114.8 0-208-93.4-208-208s93.2-208 208-208z" fill="#366CB3" /></svg>