<?xml version="1.0" standalone="no"?><!DOCTYPE svg PUBLIC "-//W3C//DTD SVG 1.1//EN" "http://www.w3.org/Graphics/SVG/1.1/DTD/svg11.dtd"><svg class="icon" width="200px" height="200.00px" viewBox="0 0 1024 1024" version="1.1" xmlns="http://www.w3.org/2000/svg"><path d="M370.193809 131.458007" fill="#ffffff" /><path d="M512.698406 957.036889c-8.514931 0-16.47216-4.230348-21.233604-11.290137L227.659535 554.626843c-0.154519-0.230244-0.305969-0.461511-0.453325-0.696872-31.426757-50.02637-48.038086-107.475803-48.038086-166.137855 0-43.463907 8.865925-85.631286 26.351158-125.332497 16.851806-38.263465 40.953737-72.604598 71.635527-102.0707 62.906725-60.414975 146.470933-93.685729 235.299027-93.685729 88.829118 0 172.393325 33.271778 235.299027 93.685729 30.68179 29.466102 54.782697 63.807235 71.635527 102.0707 17.485233 39.701211 26.350135 81.868589 26.350135 125.332497 0 58.529021-16.547885 115.891474-47.854914 165.887145-0.149403 0.239454-0.303922 0.476861-0.461511 0.711198L533.94429 945.730379c-4.757351 7.064906-12.716626 11.304464-21.234627 11.307533C512.706593 957.036889 512.701476 957.036889 512.698406 957.036889zM270.363126 526.335497 512.679987 885.594767l242.009869-359.452675c26.054399-41.753963 39.825031-89.584318 39.825031-138.349975 0-148.805094-126.531811-269.866311-282.062074-269.866311-155.530262 0-282.063097 121.061216-282.063097 269.866311C230.390739 436.667268 244.211513 484.565161 270.363126 526.335497z" fill="#ffffff" /><path d="M512.425184 538.069749c-86.37216 0-156.64055-67.952648-156.64055-151.47797s70.26839-151.47797 156.64055-151.47797c86.403882 0 156.696832 67.952648 156.696832 151.47797S598.828043 538.069749 512.425184 538.069749zM512.425184 286.336424c-58.126862 0-105.417935 44.974307-105.417935 100.255355s47.290049 100.255355 105.417935 100.255355c58.158584 0 105.473193-44.974307 105.473193-100.255355S570.583768 286.336424 512.425184 286.336424z" fill="#ffffff" /></svg>