<?xml version="1.0" standalone="no"?><!DOCTYPE svg PUBLIC "-//W3C//DTD SVG 1.1//EN" "http://www.w3.org/Graphics/SVG/1.1/DTD/svg11.dtd"><svg class="icon" width="200px" height="200.00px" viewBox="0 0 1024 1024" version="1.1" xmlns="http://www.w3.org/2000/svg"><path d="M515.41068 152.819524c48.500621 0 95.53689 9.493212 139.801023 28.215622 42.768059 18.088984 81.182974 43.99091 114.177436 76.986395 32.995485 32.995485 58.897412 71.4104 76.986395 114.177436 18.72241 44.264133 28.215622 91.300402 28.215622 139.801023s-9.493212 95.53689-28.215622 139.801023c-18.088984 42.768059-43.99091 81.182974-76.986395 114.177436-32.995485 32.995485-71.4104 58.897412-114.177436 76.986395-44.264133 18.72241-91.300402 28.215622-139.801023 28.215622s-95.53689-9.493212-139.801023-28.215622c-42.768059-18.088984-81.182974-43.99091-114.177436-76.986395-32.995485-32.995485-58.897412-71.4104-76.986395-114.177436-18.72241-44.264133-28.215622-91.300402-28.215622-139.801023s9.493212-95.53689 28.215622-139.801023c18.088984-42.768059 43.99091-81.182974 76.986395-114.177436 32.995485-32.995485 71.4104-58.897412 114.177436-76.986395C419.87379 162.312736 466.910059 152.819524 515.41068 152.819524M515.41068 126.213563c-213.063607 0-385.786437 172.72283-385.786437 385.786437s172.72283 385.786437 385.786437 385.786437 385.786437-172.72283 385.786437-385.786437S728.474286 126.213563 515.41068 126.213563L515.41068 126.213563z" fill="#9c9c9c" /><path d="M740.652654 470.176452c0-59.824527-52.146661-108.326171-116.472712-108.326171-45.613874 0-84.693938 24.623817-103.806227 60.144822-19.114336-35.521005-58.192354-60.144822-103.808274-60.144822-64.328098 0-116.474758 48.501644-116.474758 108.326171 0 5.300726 0.887206 10.377348 1.678222 15.47546l-1.678222 0c32.637328 188.265828 212.126258 216.638015 212.126258 216.638015C710.742437 679.069063 740.652654 485.652935 740.652654 485.652935l-1.678222 0C739.765447 480.553801 740.652654 475.478202 740.652654 470.176452zM667.681712 491.733421c-5.837962 26.099425-31.19242 40.872896-32.268938 41.488927-1.602498 0.917906-3.350304 1.353834-5.073552 1.353834-3.550873 0-7.001461-1.849114-8.890484-5.151323-2.801812-4.895497-1.113357-11.133571 3.771907-13.948687 0.391926-0.230244 18.742876-11.169387 22.512736-28.314883 2.013867-9.15859-0.579191-18.962887-7.706519-29.141714-3.241834-4.629437-2.116197-11.009751 2.512217-14.251585 4.630461-3.240811 11.010775-2.116197 14.252609 2.51324C667.379836 461.404672 671.044296 476.696959 667.681712 491.733421z" fill="#9c9c9c" /></svg>