<?xml version="1.0" standalone="no"?><!DOCTYPE svg PUBLIC "-//W3C//DTD SVG 1.1//EN" "http://www.w3.org/Graphics/SVG/1.1/DTD/svg11.dtd"><svg class="icon" width="200px" height="200.00px" viewBox="0 0 1024 1024" version="1.1" xmlns="http://www.w3.org/2000/svg"><path d="M749.548254 631.619378 749.575884 631.453602 749.820454 631.030977 749.923808 631.346155Z" fill="#366cb3" /><path d="M724.868155 619.191324 724.892715 619.042945 725.111702 618.664322 725.2038 618.946754Z" fill="#366cb3" /><path d="M899.987568 873.788883l-209.020524-209.020524c53.822836-58.738799 86.688361-136.994094 86.688361-222.941582 0-182.322465-147.802254-330.124719-330.125743-330.124719S117.404943 259.503289 117.404943 441.826777s147.801231 330.124719 330.124719 330.124719c80.134085 0 153.584957-28.568662 210.763215-76.054163L868.087021 905.690454c8.80862 8.809643 23.091928 8.809643 31.900547 0C908.797211 896.881834 908.797211 882.598526 899.987568 873.788883zM159.889547 441.826777c0-158.859078 128.781038-287.639093 287.639093-287.639093 158.859078 0 287.639093 128.781038 287.639093 287.639093S606.38874 729.46587 447.529663 729.46587C288.670585 729.46587 159.889547 600.684832 159.889547 441.826777z" fill="#366cb3" /></svg>